<svg width="246" height="239" viewBox="0 0 246 239" fill="none" xmlns="http://www.w3.org/2000/svg">
<circle cx="132.5" cy="113.5" r="113.5" fill="white"/>
<path d="M135.822 113.148L123.509 75.7358C127.514 69.8673 129.91 62.944 128.602 55.6156C124.833 34.4967 95.7114 42.3482 91.0996 53.7045C86.4879 65.0607 90.0865 92.231 97.7383 93.3521C100.79 93.7999 106.915 91.2476 112.939 86.6777L111.958 115.702L135.822 113.148Z" fill="#B28B67"/>
<path d="M124.971 78.5437C128.674 75.7468 131.172 70.6218 131.493 65.1717C131.671 62.1462 131.186 59.1184 130.073 56.2995C129.371 54.5199 128.451 52.8346 127.333 51.2826C122.067 36.6297 107.088 39.5995 95.9167 42.1618C90.4766 43.4098 85.9385 44.5623 83.8654 43.535C83.4416 51.792 88.3184 57.8917 102.874 55.0507C106.26 56.4986 108.924 59.6098 112.218 63.8202C113.446 63.1791 114.858 62.9825 116.214 63.2638C117.57 63.5451 118.787 64.287 119.659 65.3636C120.53 66.4402 121.002 67.7851 120.995 69.1702C120.988 70.5552 120.502 71.8952 119.619 72.9625C121.382 74.9582 123.131 76.7825 124.969 78.5429L124.971 78.5437Z" fill="#191847"/>
<path d="M33.7885 221.094L63.5956 204.334L54.5249 187.865L26.5 216.528C19.189 219.319 11.4274 221.481 5.14004 226.14C3.92613 227.543 2.5814 230.252 8.17634 229.144C13.7713 228.035 19.7043 227.118 20.7145 228.953C21.7246 230.788 18.5822 233.497 20.4689 235.907C20.5525 236.018 20.665 236.103 20.7941 236.154C20.9231 236.205 21.0637 236.219 21.2003 236.195C23.0556 235.972 27.2516 230.938 33.7885 221.094Z" fill="#B28B67"/>
<path d="M122.418 105.09L113.773 103.606C100.147 151.745 30.1687 184.552 25.8695 202.548C24.2933 209.147 29.0457 212.484 26.5889 214.494L37.8253 222.721C39.7289 220.502 43.7889 224.563 52.2692 221.724C60.7495 218.884 122.411 162.094 122.418 105.09Z" fill="#DB2721"/>
<path d="M204 202.528C198.42 165.528 158.751 117.128 142.477 104.607L142.067 98.7486C141.993 97.6904 141.502 96.7049 140.701 96.009C139.901 95.3131 138.857 94.9636 137.798 95.0376L110.864 96.9216C110.34 96.9581 109.829 97.0975 109.358 97.3318C108.888 97.5662 108.469 97.8908 108.124 98.2872C107.779 98.6836 107.516 99.1441 107.349 99.6422C107.183 100.14 107.116 100.667 107.152 101.191L107.872 111.484C108.872 175.239 73.5 208.944 79 213.528C112.154 241.156 154 227.528 168.5 221.528C168.5 221.528 169.679 221.882 169.946 210.989C172.776 219.214 171.385 214.108 173 220.028L181.5 216.528L189 212.528L196.5 208.028L204 202.528Z" fill="#FF4133"/>
</svg>
