<svg width="254" height="227" viewBox="0 0 254 227" fill="none" xmlns="http://www.w3.org/2000/svg">
<circle cx="113.5" cy="113.5" r="113.5" fill="white"/>
<path d="M85.1984 88.4446L107.51 55.9871C105.311 49.2308 104.953 41.9134 108.264 35.2461C117.804 16.0317 143.555 31.7354 144.797 43.9293C146.039 56.1232 134.965 81.1938 127.306 80.124C124.25 79.6978 119.087 75.5301 114.586 69.4541L107.388 97.5887L85.1984 88.4446Z" fill="#B28B67"/>
<path d="M103.969 59.7391C106.29 46.2004 101.837 34.4851 105.33 29.4469C106.372 27.9874 107.78 26.8282 109.412 26.0862C111.044 25.3442 112.843 25.0456 114.628 25.2205C114.628 25.2205 121.867 15.3598 135.983 23.0948C150.1 30.8297 156.596 40.6936 147.125 52.6034C143.541 51.1267 139.748 48.0492 132.85 47.8027C129.567 47.686 126.075 52.6792 126.075 52.6792L123.375 51.5663C123.375 51.5663 122.127 43.4196 117.584 43.5701C113.041 43.7205 112.383 51.255 112.383 51.255L106.842 60.922L103.969 59.7391Z" fill="#191847"/>
<path d="M112.416 106.92C126.501 114.954 142.585 118.807 158.781 118.025L157.05 134.538C140.785 138.787 121.391 138.777 108.911 131.055C99.0761 124.969 100.988 109.909 112.416 106.92Z" fill="#2026A2"/>
<path d="M82.5 223C70.5221 220.149 61.5 215.5 53 210.5C57 175.5 61 178.5 63.3311 145.4C63.3511 119.642 84.0301 80.0005 87.0731 80.0005H114.82C116.35 99.6595 124.049 121.325 130.371 142.729C150.535 147.307 195.312 131.373 195.312 131.373C195.312 131.373 206.612 154.758 205.763 164.716C179.699 178.331 157.363 184.401 138.963 184.801C139.548 195.72 138.218 206.112 133.754 215.601C130.413 222.701 121.279 227 110 227C98 226.5 93 225.5 82.5 223Z" fill="#1F28CF"/>
<path d="M133.5 131.898L202.184 130.895L167.507 148.263L133.5 131.898Z" fill="#C9C9C9"/>
<path d="M167.871 148.264L133.5 135.104V131.685L170.605 144.918L167.871 148.264Z" fill="#818181"/>
<path d="M167.447 148.264L187.816 93.0005L253.5 94.0581L234.072 144.993L167.447 148.264Z" fill="#DCDCDC"/>
<path d="M210.475 127.335C207.724 125.962 207.119 121.604 209.124 117.601C211.129 113.597 214.985 111.465 217.736 112.838C220.488 114.21 221.093 118.569 219.088 122.572C217.083 126.575 213.227 128.708 210.475 127.335Z" fill="#F1F1F1"/>
<path d="M203.731 152.893L202 147.5C202 147.5 202.845 138.662 207.236 139.179C208.437 138.806 207.695 141.049 207.221 143.328C206.754 145.572 206.549 147.853 208.718 147.705C213.089 147.406 224.513 141.093 226.088 142.902C228.424 145.58 225.097 152.379 221.837 155.544C215.745 161.46 216.744 160.776 205.712 162.301C205.5 160 205.216 158.339 205.216 158.339L203.731 152.893Z" fill="#997659"/>
<path d="M158 123.5L158.5 121C166.03 118.868 170 120.501 173 121.501C175.5 122.501 177.139 124.242 174.5 125.5C169.352 127.955 163.907 127.62 164.189 129.69C164.315 130.6 165.185 131.168 166.115 131.778C167.3 132.556 168.585 133.403 168.544 135.119C168.496 137.158 169.974 136.146 157 131.5L157.5 127.5L158 123.5Z" fill="#997659"/>
</svg>
