<svg width="285" height="254" viewBox="0 0 285 254" fill="none" xmlns="http://www.w3.org/2000/svg">
<circle cx="146.5" cy="113.5" r="113.5" fill="white"/>
<path d="M114.618 197.787L150.873 228.5L161.618 227.287L172.618 225.287L168.509 197.787H114.618Z" fill="#191847"/>
<path d="M105.176 197.911C104.873 217.411 104.873 213.911 104.873 219.911C104.873 219.911 114.873 223.411 124.873 225.411L133.873 226.911C135.873 226.911 141.873 227.911 150.873 228.411C154.69 219.611 169.873 197.911 169.873 197.911H105.176Z" fill="#191847"/>
<path d="M120.984 111.974L129.246 73.4636C124.639 68.0546 121.52 61.4256 122.041 53.9996C123.541 32.5996 153.333 37.3076 159.127 48.1086C164.921 58.9096 164.234 86.3086 156.745 88.2376C153.758 89.0076 147.396 87.1216 140.92 83.2186L144.984 111.974H120.984Z" fill="#B28B67"/>
<path d="M141.079 82.0445C139.467 77.1755 138.853 63.1575 138.704 59.0155C138.465 58.9869 138.225 58.9726 137.984 58.9725C136.791 58.9727 135.626 59.3282 134.636 59.9938C133.647 60.6594 132.878 61.6047 132.428 62.7092C131.978 63.8137 131.867 65.0273 132.11 66.1949C132.353 67.3625 132.939 68.4312 133.792 69.2645C132.403 71.2235 130.848 73.2715 129.065 75.3835C122.365 71.3655 117.396 59.6015 123.945 48.3005C125.755 42.7645 129.853 39.8075 134.692 38.4345C138.296 36.8735 142.322 36.5771 146.116 37.5935C152.85 38.1715 158.863 40.2255 160.567 41.4445C160.567 47.8195 159.331 49.7105 148.781 49.5445C146.189 50.9135 144.195 53.2715 142.119 56.3615C142.134 56.5675 143.529 75.5615 149.41 75.5615C155.322 75.5615 160.339 71.8075 162.933 71.8075C164.824 71.8075 164.402 74.1745 163.148 75.9285C162.114 77.3765 157.078 78.7715 157.078 81.0165C157.078 82.2835 158.347 82.2815 159.451 82.2795C160.302 82.2795 161.057 82.2795 161.057 82.8565C161.057 85.0565 161.757 89.1975 157.935 89.1975C154.068 89.1935 142.979 87.7855 141.079 82.0445Z" fill="#191847"/>
<path d="M284.873 200.376L258.838 245.516L229.873 228.788L254.786 183L284.873 200.376Z" fill="#616161"/>
<path d="M281.726 201.928L258.579 242.024L232.89 227.193L255.002 186.493L281.726 201.928Z" fill="#F2F2F2"/>
<path d="M37.1615 247.482C35.7602 245.218 34.1641 242.967 29.4879 244.217C21.1201 246.454 14.0834 251.94 6.11464 244.854C5.13481 243.982 4.38023 241.216 7.64088 239.732C15.7661 236.038 27.7451 229.178 29.6608 226.563C33.5799 221.211 57.1722 163.7 57.1722 163.7L74.7911 166.886C74.7911 166.886 44.1276 227.763 41.948 231.261C38.6733 236.505 41.9824 245.964 43.2289 250.953C42.8497 251.051 42.4625 251.115 42.072 251.145C39.4003 251.333 38.3502 249.401 37.1615 247.482ZM226.144 203.969L219 200.5L224 190.5L233.503 196.857C241.1 198.759 241.5 199.5 245 201C244 203 242.873 205 242.873 205C242.873 205 241.14 208.252 240.067 210.218C239.282 212.159 243.459 214.85 241.873 217.468C241.725 217.713 241.373 218 241.373 218C241.373 218 240.819 218.003 240.873 218C239.373 217.5 233.916 213.094 226.144 203.969Z" fill="#B28B67"/>
<path d="M136.734 148.122C131.866 138.767 133.513 106.989 133.049 95.4275L143.744 91.0415C158.649 121.858 178.83 151.424 208.8 176.679C213.341 176.453 217.88 177.133 222.155 178.679C223.044 178.978 223.816 179.547 224.365 180.307C224.915 181.067 225.213 181.98 225.218 182.917C225.223 183.855 224.935 184.771 224.395 185.537C223.855 186.303 223.088 186.881 222.203 187.191C223.119 187.857 224.043 188.522 224.975 189.185L216.928 205.613C183.065 188.726 151.237 175.997 136.734 148.122Z" fill="#69A1AC"/>
<path d="M95.4803 202.911C95.4803 202.911 145.794 207.181 172.873 202C173.529 202.59 171.873 194.5 170.816 190.211C154.665 149.204 144.04 119.185 144.04 90.7036C139.595 93.0256 128.48 91.4036 128.48 91.4036C108.566 120.751 99.4133 154.428 95.4803 202.911Z" fill="#191847"/>
<path d="M89.6526 207.758L92.7236 197.057C93.0569 195.558 93.3449 194.068 93.5876 192.587C95.4786 180.878 92.5706 169.387 92.3296 158.087C78.9356 170.01 62.7226 190.813 49.0426 226.871L30.1556 221.314C30.8776 218.633 31.6336 215.994 32.4236 213.397C30.2376 212.197 27.6606 206.471 29.5006 205.517C31.4465 204.511 33.5313 203.8 35.6866 203.407C63.4726 123.984 120.473 89.0005 120.473 89.0005H131.846C128.497 133.281 164.945 145.937 148.887 228.5C148.887 228.5 140.666 227.848 126.387 226C104.503 223.169 88.3868 211.5 88.3868 211.5L89.6526 207.758Z" fill="#89C5CC"/>
<path d="M124.586 90.0005L119.427 105.865L129.816 117.759L120.427 127.106L143.143 166L115.364 127.183L124.586 117.759L115.364 107.248L124.586 90.0005Z" fill="black" fill-opacity="0.1"/>
<path d="M138.48 223C138.48 222.209 138.715 221.436 139.154 220.778C139.594 220.12 140.219 219.608 140.95 219.305C141.681 219.002 142.485 218.923 143.261 219.077C144.037 219.232 144.749 219.613 145.309 220.172C145.868 220.731 146.249 221.444 146.403 222.22C146.558 222.996 146.479 223.8 146.176 224.531C145.873 225.262 145.36 225.887 144.703 226.326C144.045 226.766 143.271 227 142.48 227C141.419 227 140.402 226.579 139.652 225.829C138.902 225.079 138.48 224.061 138.48 223ZM137.48 200C137.48 199.209 137.715 198.436 138.154 197.778C138.594 197.12 139.219 196.608 139.95 196.305C140.681 196.002 141.485 195.923 142.261 196.077C143.037 196.232 143.749 196.613 144.309 197.172C144.868 197.731 145.249 198.444 145.403 199.22C145.558 199.996 145.479 200.8 145.176 201.531C144.873 202.262 144.36 202.887 143.703 203.326C143.045 203.766 142.271 204 141.48 204C140.419 204 139.402 203.579 138.652 202.829C137.902 202.079 137.48 201.061 137.48 200ZM132.48 177C132.48 176.209 132.715 175.436 133.154 174.778C133.594 174.12 134.219 173.608 134.95 173.305C135.681 173.002 136.485 172.923 137.261 173.077C138.037 173.232 138.749 173.613 139.309 174.172C139.868 174.731 140.249 175.444 140.403 176.22C140.558 176.996 140.479 177.8 140.176 178.531C139.873 179.262 139.36 179.887 138.703 180.326C138.045 180.766 137.271 181 136.48 181C135.419 181 134.402 180.579 133.652 179.829C132.902 179.079 132.48 178.061 132.48 177Z" fill="black" fill-opacity="0.4"/>
<path d="M273.192 198.349L274.83 195.547L264.399 189.511L262.373 192.098L273.192 198.349Z" fill="#616161"/>
</svg>
