<svg width="227" height="227" viewBox="0 0 227 227" fill="none" xmlns="http://www.w3.org/2000/svg">
<path d="M227 113.5C227 176.185 176.184 227 113.5 227C50.8157 227 0 176.185 0 113.5C0 50.8162 50.8157 0.000488281 113.5 0.000488281C176.184 0.000488281 227 50.8162 227 113.5Z" fill="white"/>
<path d="M91.1417 127.799L107.919 92.1642C104.658 85.8516 103.123 78.6882 105.314 71.5736C111.626 51.0708 139.575 62.41 142.77 74.2433C145.964 86.0766 139.084 112.607 131.353 112.788C128.269 112.86 122.5 109.581 117.077 104.312L114.517 133.239L91.1417 127.799Z" fill="#B28B67"/>
<path d="M136.204 60.6355C133.23 59.0079 130.011 57.8738 126.674 57.2777C128.424 54.8559 129.517 52.0215 129.844 49.0512C130.148 46.168 129.45 43.4881 128.875 40.7205C128.664 39.433 128.222 38.1943 127.569 37.0645C126.857 35.9694 125.858 35.0903 124.681 34.5226C123.494 33.9559 122.198 33.6543 120.883 33.6385C120.303 33.6256 119.748 33.7634 119.173 33.7774C118.598 33.7914 118.395 33.3819 118.074 32.9383C117.211 31.8901 116.068 31.1093 114.778 30.6876C113.417 30.2166 111.968 30.0575 110.538 30.2224C109.124 30.3438 107.765 30.8264 106.591 31.6239C106.055 31.9902 105.584 32.4421 105.195 32.9614C105.042 33.1783 104.99 33.3162 104.73 33.3481C104.49 33.3775 104.231 33.3201 103.985 33.344C102.773 33.4769 101.6 33.8507 100.535 34.4433C99.4704 35.0359 98.5346 35.8355 97.783 36.7949C96.6443 38.5719 95.8905 40.5677 95.5702 42.6538C95.0614 45.1926 95.8069 52.2986 97.3754 55.1894C98.8686 57.7587 101.106 59.8144 103.793 61.0848C101.555 62.8047 99.6749 64.9447 98.2567 67.3847C96.6413 69.99 95.3637 72.7902 94.4546 75.7177C93.4928 78.5294 92.9643 81.4709 92.8871 84.4415C92.8442 85.7434 93.0669 87.0405 93.5417 88.2535C94.0164 89.4666 94.7333 90.5702 95.6485 91.4972C96.5336 92.3337 97.4916 93.0896 98.511 93.7559C99.4804 94.4497 100.505 95.0626 101.575 95.5883C103.625 96.5347 106.124 97.0351 108.181 95.708C108.977 95.2097 109.712 94.6208 110.372 93.953C110.592 93.7177 110.728 93.5624 110.599 93.2531C110.406 92.8878 110.17 92.5466 109.897 92.2365C108.549 90.4481 107.951 88.2054 108.228 85.9834C108.494 83.6407 109.792 80.838 112.243 80.3591C115.266 79.7672 117.953 81.8803 120.081 83.7617C121.965 80.352 124.853 77.5601 128.573 76.6609C132.687 75.6677 136.964 76.4332 141.12 75.7249C142.231 75.608 143.299 75.2329 144.239 74.6296C144.673 74.3459 145.04 73.9722 145.316 73.534C145.411 73.2501 145.446 72.9492 145.417 72.651C145.388 72.3528 145.296 72.0641 145.148 71.8039C144.118 68.8989 139.172 62.3531 136.204 60.6355Z" fill="#191847"/>
<path d="M148.158 188.24L187.352 181.046C193.985 176.777 201.174 173.44 208.716 171.128C210.579 170.989 213.577 171.531 209.326 175.418C205.075 179.305 200.779 183.587 201.658 185.517C202.537 187.447 206.61 186.527 207.433 189.519C207.98 191.514 201.325 192.148 187.467 191.422L156.047 205.585L148.158 188.24Z" fill="#997659"/>
<path d="M103.44 126.351L120.5 125.501C123.109 158.528 139.822 182.19 184.22 176.482L188.782 219.05C147.326 223.17 111.618 205.478 105.578 160.298C104.02 148.596 102.876 136.441 103.44 126.351Z" fill="#AFB9C5"/>
<path d="M36 197.5C49.6758 164.098 68.6428 135.931 92.9009 114H94.6009L94.6149 114.016L120.592 119.965C120.592 164.645 132.2 191.151 139.5 224L131 226L122 227H105L96.5 226L88.5 224.5L73.5 220.5L62.5 216L53 210.5L43.5 204L36 197.5Z" fill="#C5CFD6"/>
<path d="M86.5 224L73.5 220.5C75.6031 197.179 78.3106 179.401 83.8344 161C82.6296 180.578 82.1122 208.227 86.5 224Z" fill="black" fill-opacity="0.1"/>
</svg>
