<svg width="82" height="23" viewBox="0 0 82 23" fill="none" xmlns="http://www.w3.org/2000/svg">
<path d="M8.04 7.536H4.584V14.808C4.584 15.464 4.712 15.936 4.968 16.224C5.224 16.496 5.608 16.64 6.12 16.656C6.632 16.656 7.272 16.64 8.04 16.608V18C6.36 18.256 5.096 18.136 4.248 17.64C3.416 17.144 3 16.2 3 14.808V7.536H0.48V6H3V3.12L4.584 2.64V6H8.04V7.536ZM15.4974 5.712C17.2734 5.712 18.7054 6.344 19.7934 7.608C20.8974 8.856 21.4494 10.336 21.4494 12.048C21.4494 12.224 21.4334 12.472 21.4014 12.792H10.8654C11.0254 14.008 11.5374 14.976 12.4014 15.696C13.2814 16.4 14.3614 16.752 15.6414 16.752C16.5534 16.752 17.3374 16.568 17.9934 16.2C18.6654 15.816 19.1694 15.32 19.5054 14.712L20.8974 15.528C20.3694 16.376 19.6494 17.048 18.7374 17.544C17.8254 18.04 16.7854 18.288 15.6174 18.288C13.7294 18.288 12.1934 17.696 11.0094 16.512C9.82544 15.328 9.23344 13.824 9.23344 12C9.23344 10.208 9.81744 8.712 10.9854 7.512C12.1534 6.312 13.6574 5.712 15.4974 5.712ZM15.4974 7.248C14.2494 7.248 13.2014 7.624 12.3534 8.376C11.5214 9.112 11.0254 10.072 10.8654 11.256H19.8174C19.6574 9.992 19.1694 9.008 18.3534 8.304C17.5374 7.6 16.5854 7.248 15.4974 7.248ZM34.2891 6H35.8731V18H34.2891V15.648C33.1851 17.408 31.5691 18.288 29.4411 18.288C27.7291 18.288 26.2651 17.68 25.0491 16.464C23.8491 15.248 23.2491 13.76 23.2491 12C23.2491 10.24 23.8491 8.752 25.0491 7.536C26.2651 6.32 27.7291 5.712 29.4411 5.712C31.5691 5.712 33.1851 6.592 34.2891 8.352V6ZM26.2011 15.384C27.1131 16.296 28.2331 16.752 29.5611 16.752C30.8891 16.752 32.0091 16.296 32.9211 15.384C33.8331 14.456 34.2891 13.328 34.2891 12C34.2891 10.672 33.8331 9.552 32.9211 8.64C32.0091 7.712 30.8891 7.248 29.5611 7.248C28.2331 7.248 27.1131 7.712 26.2011 8.64C25.2891 9.552 24.8331 10.672 24.8331 12C24.8331 13.328 25.2891 14.456 26.2011 15.384ZM52.0189 5.712C53.3629 5.712 54.4429 6.144 55.2589 7.008C56.0909 7.872 56.5069 9.04 56.5069 10.512V18H54.9229V10.512C54.9229 9.472 54.6509 8.672 54.1069 8.112C53.5789 7.536 52.8749 7.248 51.9949 7.248C51.0029 7.248 50.1949 7.584 49.5709 8.256C48.9629 8.912 48.6589 9.944 48.6589 11.352V18H47.0749V10.512C47.0749 9.456 46.8189 8.648 46.3069 8.088C45.8109 7.528 45.1309 7.248 44.2669 7.248C43.3069 7.248 42.4909 7.584 41.8189 8.256C41.1469 8.928 40.8109 9.96 40.8109 11.352V18H39.2269V6H40.8109V7.752C41.6749 6.392 42.8989 5.712 44.4829 5.712C46.2109 5.712 47.4269 6.44 48.1309 7.896C48.9949 6.44 50.2909 5.712 52.0189 5.712ZM59.5706 18V0.48H61.1546V18H59.5706ZM73.1559 6H74.8359L69.6999 19.104C69.2359 20.288 68.5719 21.216 67.7079 21.888C66.8599 22.576 65.9079 22.88 64.8519 22.8V21.312C66.2919 21.472 67.3879 20.64 68.1399 18.816L68.4519 18.072L63.0759 6H64.7559L69.2679 16.056L73.1559 6Z" fill="black"/>
<path d="M78.5503 18.336C77.8463 18.336 77.2463 18.096 76.7503 17.616C76.2703 17.12 76.0303 16.528 76.0303 15.84C76.0303 15.152 76.2783 14.568 76.7743 14.088C77.2703 13.592 77.8623 13.344 78.5503 13.344C79.2383 13.344 79.8223 13.592 80.3023 14.088C80.7983 14.568 81.0463 15.152 81.0463 15.84C81.0463 16.528 80.7983 17.12 80.3023 17.616C79.8223 18.096 79.2383 18.336 78.5503 18.336Z" fill="#5A78F0"/>
</svg>
