<svg width="20" height="20" viewBox="0 0 20 20" fill="none" xmlns="http://www.w3.org/2000/svg">
<g clip-path="url(#clip0)">
<path d="M19.7636 0.236875C19.4481 -0.0786328 18.9366 -0.0786328 18.6211 0.236875L0.236875 18.621C-0.0786328 18.9366 -0.0786328 19.4481 0.236875 19.7636C0.394609 19.9214 0.601406 20.0002 0.808164 20.0002C1.01492 20.0002 1.22168 19.9214 1.37945 19.7635L19.7636 1.37937C20.0791 1.06391 20.0791 0.552383 19.7636 0.236875Z" fill="black"/>
<path d="M19.7633 18.621L1.37913 0.236875C1.06366 -0.0786328 0.5521 -0.0786328 0.236631 0.236875C-0.0788769 0.552343 -0.0788769 1.06387 0.236631 1.37937L18.6208 19.7636C18.7786 19.9214 18.9854 20.0002 19.1921 20.0002C19.3989 20.0002 19.6057 19.9214 19.7634 19.7636C20.0788 19.4481 20.0788 18.9365 19.7633 18.621Z" fill="black"/>
</g>
<defs>
<clipPath id="clip0">
<rect width="20" height="20" fill="white"/>
</clipPath>
</defs>
</svg>
